<?xml version="1.0" encoding="UTF-8" standalone="no"?>
<svg
   xmlns:dc="http://purl.org/dc/elements/1.1/"
   xmlns:cc="http://creativecommons.org/ns#"
   xmlns:rdf="http://www.w3.org/1999/02/22-rdf-syntax-ns#"
   xmlns:svg="http://www.w3.org/2000/svg"
   xmlns="http://www.w3.org/2000/svg"
   x="0px"
   y="0px"
   version="1.1"
   width="192"
   viewBox="0 0 192 192"
   height="192"
   xml:space="preserve"
   id="Layer_1"><metadata
     id="metadata9"><rdf:RDF><cc:Work
         rdf:about=""><dc:format>image/svg+xml</dc:format><dc:type
           rdf:resource="http://purl.org/dc/dcmitype/StillImage" /><dc:title></dc:title></cc:Work></rdf:RDF></metadata><defs
     id="defs7"><filter
       id="filter3954"><feGaussianBlur
         stdDeviation="1.52"
         id="feGaussianBlur3956" /></filter><filter
       id="filter3812"><feGaussianBlur
         stdDeviation="1.265"
         id="feGaussianBlur3814" /></filter></defs><g
     id="g9"><g
       id="g11"><path
         fill="#333"
         filter="url(#filter3812)"
         d="m68.219 21.344c-8.31 0-15 6.69-15 15v89.996c0 8.31 6.69 15 15 15h73.161l-0.16 0.07 32 12.93-0.1-26-0.03 0.04c0.09-0.67 0.13-1.34 0.13-2.04v-89.996c0-8.31-6.69-15-15-15h-90.001z"
         opacity=".8"
         id="rect3784-6-0" /><rect
         fill="#716b8a"
         x="52"
         y="20"
         width="120"
         height="120"
         ry="15"
         id="rect3784-6" /><path
         d="m-47.651 44.984-31.992 18.345 0.10825-36.878z"
         fill="#504777"
         transform="matrix(-1.0003 0 0 .70502 92.336 108.35)"
         id="path3804-6" /><rect
         fill="#333"
         x="21.227"
         y="53.351"
         width="120"
         filter="url(#filter3954)"
         height="120"
         ry="15"
         opacity=".8"
         id="rect3784-3" /><path
         d="m-47.651 44.984-31.992 18.345 0.10825-36.878z"
         fill="#333"
         filter="url(#filter3954)"
         transform="matrix(1.0003 0 0 .70502 100.89 21.702)"
         opacity=".8"
         id="path3804-9" /><rect
         fill="#504777"
         x="20"
         y="52"
         width="120"
         height="120"
         ry="15"
         id="rect3784" /><path
         d="m-47.651 44.984-31.992 18.345 0.10825-36.878z"
         fill="#3d3563"
         transform="matrix(1.0003 0 0 .70502 99.664 20.351)"
         id="path3804" /></g><path
       d="m80 78.375c-10.493 0-19 8.507-19 19 0 7.135 3.935 13.345 9.75 16.595l-3.75 31.03h26l-3.75-31.03c5.815-3.25 9.75-9.46 9.75-16.595 0-10.493-8.507-19-19-19z"
       fill="#fff"
       id="path3033" /></g></svg>